<svg width="44" height="44" viewBox="0 0 44 44" fill="none" xmlns="http://www.w3.org/2000/svg">
<path d="M22 43.1199C33.6642 43.1199 43.12 33.6641 43.12 21.9999C43.12 10.3356 33.6642 0.879883 22 0.879883C10.3357 0.879883 0.879997 10.3356 0.879997 21.9999C0.879997 33.6641 10.3357 43.1199 22 43.1199Z" fill="url(#paint0_linear_97_1576)"/>
<path opacity="0.4" d="M22 40.48C32.2062 40.48 40.48 32.2062 40.48 22C40.48 11.7938 32.2062 3.52002 22 3.52002C11.7938 3.52002 3.52 11.7938 3.52 22C3.52 32.2062 11.7938 40.48 22 40.48Z" fill="url(#paint1_radial_97_1576)"/>
<path d="M14.08 13.2V30.8" stroke="white" stroke-width="2.2" stroke-linecap="round"/>
<path d="M14.08 13.1999C14.08 10.8533 15.5467 9.67993 18.48 9.67993C21.4133 9.67993 22.88 11.1466 22.88 14.0799C22.88 17.0133 21.4133 18.4799 18.48 18.4799H14.08" stroke="white" stroke-width="2.2" stroke-linecap="round" stroke-linejoin="round"/>
<path d="M18.48 18.48L25.52 30.8" stroke="white" stroke-width="2.2" stroke-linecap="round"/>
<path d="M27.28 27.28L29.92 24.64L27.28 22" stroke="white" stroke-width="1.76" stroke-linecap="round" stroke-linejoin="round"/>
<path opacity="0.8" d="M12.32 23.3199C13.049 23.3199 13.64 22.7289 13.64 21.9999C13.64 21.2709 13.049 20.6799 12.32 20.6799C11.591 20.6799 11 21.2709 11 21.9999C11 22.7289 11.591 23.3199 12.32 23.3199Z" fill="white"/>
<path opacity="0.6" d="M31.68 19.5799C32.2875 19.5799 32.78 19.0874 32.78 18.4799C32.78 17.8724 32.2875 17.3799 31.68 17.3799C31.0725 17.3799 30.58 17.8724 30.58 18.4799C30.58 19.0874 31.0725 19.5799 31.68 19.5799Z" fill="white"/>
<path opacity="0.7" d="M25.52 11.8799C26.006 11.8799 26.4 11.4859 26.4 10.9999C26.4 10.5139 26.006 10.1199 25.52 10.1199C25.034 10.1199 24.64 10.5139 24.64 10.9999C24.64 11.4859 25.034 11.8799 25.52 11.8799Z" fill="white"/>
<defs>
<linearGradient id="paint0_linear_97_1576" x1="0.879997" y1="0.879883" x2="4224.88" y2="4224.88" gradientUnits="userSpaceOnUse">
<stop stop-color="#DC2626"/>
<stop offset="0.5" stop-color="#B91C1C"/>
<stop offset="1" stop-color="#991B1B"/>
</linearGradient>
<radialGradient id="paint1_radial_97_1576" cx="0" cy="0" r="1" gradientUnits="userSpaceOnUse" gradientTransform="translate(1851.52 1851.52) scale(1848)">
<stop stop-color="#FCA5A5" stop-opacity="0.8"/>
<stop offset="1" stop-color="#DC2626" stop-opacity="0"/>
</radialGradient>
</defs>
</svg>
